<svg width="234" height="53" viewBox="0 0 234 53" fill="none" xmlns="http://www.w3.org/2000/svg">
<path d="M73.64 37C73.64 34.888 73.928 33.0213 74.504 31.4C75.1013 29.7573 75.816 28.36 76.648 27.208C77.48 26.0347 78.568 24.712 79.912 23.24C81.0853 21.96 82.0027 20.872 82.664 19.976C83.3467 19.0587 83.8587 18.0667 84.2 17H72.84C72.6907 18.152 72.328 19.112 71.752 19.88C71.5173 20.2427 71.24 20.5627 70.92 20.84H69.96V14.6H85.16V16.04C85.16 17.2347 84.968 18.344 84.584 19.368C84.2213 20.392 83.6453 21.7147 82.856 23.336C82.088 24.8507 81.4587 26.1947 80.968 27.368C80.4987 28.5413 80.0933 29.9493 79.752 31.592C79.4107 33.2133 79.24 35.016 79.24 37H73.64ZM91.5688 36.52L93.4888 36.04V15.4H89.8088C89.8088 16.7013 89.4568 17.9493 88.7528 19.144C88.4541 19.6347 88.1128 20.04 87.7288 20.36H86.7688V14.6H105.489V20.36H104.529C104.123 20.04 103.771 19.6347 103.473 19.144C102.79 17.992 102.449 16.744 102.449 15.4H98.7688V36.04L100.689 36.52V37H91.5688V36.52ZM103.735 36.52L106.295 35.56L115.095 14.28H116.055L125.175 36.04L126.775 36.52V37H122.935C121.826 37 120.919 36.7547 120.215 36.264C119.511 35.752 118.988 35.0907 118.647 34.28L117.015 30.44H109.367L107.255 35.56L109.655 36.52V37H103.735V36.52ZM109.687 29.64H116.695L113.175 21.224L109.687 29.64ZM137.34 37.48C135.249 37.48 133.415 37.032 131.836 36.136C130.279 35.2187 129.073 33.8853 128.22 32.136C127.367 30.3867 126.94 28.2747 126.94 25.8C126.94 23.3253 127.367 21.2133 128.22 19.464C129.073 17.7147 130.279 16.392 131.836 15.496C133.415 14.5787 135.249 14.12 137.34 14.12C139.431 14.12 141.255 14.5787 142.812 15.496C144.391 16.392 145.607 17.7147 146.46 19.464C147.313 21.2133 147.74 23.3253 147.74 25.8C147.74 28.2747 147.313 30.3867 146.46 32.136C145.607 33.8853 144.391 35.2187 142.812 36.136C141.255 37.032 139.431 37.48 137.34 37.48ZM137.34 36.84C138.172 36.84 138.94 36.488 139.644 35.784C140.369 35.08 140.967 33.9067 141.436 32.264C141.905 30.6213 142.14 28.4667 142.14 25.8C142.14 23.1333 141.905 20.9787 141.436 19.336C140.967 17.6933 140.369 16.52 139.644 15.816C138.94 15.112 138.172 14.76 137.34 14.76C136.508 14.76 135.729 15.112 135.004 15.816C134.3 16.52 133.713 17.6933 133.244 19.336C132.775 20.9787 132.54 23.1333 132.54 25.8C132.54 28.4667 132.775 30.6213 133.244 32.264C133.713 33.9067 134.3 35.08 135.004 35.784C135.729 36.488 136.508 36.84 137.34 36.84Z" fill="#030303"/>
<path d="M155.616 18.816L155.744 18.688C160.208 18.88 159.072 22.208 157.296 21.248C157.024 20.384 156.24 19.392 155.616 18.816ZM154.416 22.32L154.544 22.192C158.864 22.384 157.632 25.648 155.952 24.624C155.744 23.776 155.04 22.864 154.416 22.32ZM159.328 21.728L159.568 21.808C158.912 23.632 157.728 27.056 157.504 27.856C157.36 28.384 157.232 28.944 157.232 29.36C157.264 30.192 157.92 30.736 157.872 32.128C157.84 32.944 157.296 33.456 156.496 33.456C156.112 33.456 155.76 33.216 155.616 32.64C155.92 30.96 155.856 29.536 155.472 29.28C155.248 29.12 154.976 29.04 154.624 29.008V28.72H155.376C155.616 28.72 155.696 28.704 155.888 28.384C156.256 27.792 156.256 27.792 159.328 21.728ZM166.544 27.68H161.696V31.52H166.544V27.68ZM166.816 23.68L167.84 22.304C167.84 22.304 168.976 23.248 169.648 23.888C169.6 24.064 169.424 24.144 169.2 24.144H165.04V27.216H166.384L167.264 26.256L169.072 27.648C168.96 27.776 168.736 27.92 168.416 27.984V32.768C168.4 32.896 167.504 33.296 166.864 33.296H166.544V31.984H161.696V32.8C161.696 32.976 160.896 33.376 160.112 33.376H159.872V26.448L161.792 27.216H163.136V24.144H159.088L158.96 23.68H163.136V20.96C161.84 21.088 160.48 21.184 159.232 21.216L159.2 20.976C161.904 20.432 165.344 19.36 167.104 18.544L168.96 20.336C168.768 20.48 168.4 20.496 167.904 20.304C167.104 20.464 166.112 20.624 165.04 20.752V23.68H166.816ZM172.624 27.12H173.808V25.616H172.624V27.12ZM173.808 23.632H172.624V25.152H173.808V23.632ZM176.656 23.632H175.44V25.152H176.656V23.632ZM175.44 27.12H176.656V25.616H175.44V27.12ZM178.736 30.4L178.768 30.608C177.264 31.2 175.088 31.952 171.856 32.912C171.744 33.12 171.568 33.248 171.376 33.28L170.576 31.072C171.264 31.04 172.416 30.96 173.808 30.848V29.504H170.912L170.784 29.056H173.808V27.584H172.624V27.84C172.624 27.968 172.112 28.24 171.312 28.24H171.024V22.48L172.8 23.184H173.808V22.016H170.656L170.528 21.568H173.808V20.352C172.72 20.416 171.6 20.464 170.576 20.464L170.544 20.208C172.784 19.792 175.696 18.976 177.184 18.368L178.8 20.016C178.624 20.176 178.272 20.16 177.808 19.968C177.136 20.064 176.32 20.144 175.44 20.224V21.568H176.64L177.536 20.448C177.536 20.448 178.56 21.216 179.184 21.776C179.152 21.952 178.992 22.016 178.752 22.016H175.44V23.184H176.608L177.392 22.272L178.944 23.456C178.848 23.584 178.704 23.68 178.352 23.744V27.568C178.352 27.648 177.792 27.952 176.96 27.952H176.656V27.584H175.44V29.056H176.368L177.216 28C177.216 28 178.176 28.736 178.784 29.248C178.736 29.424 178.576 29.504 178.352 29.504H175.44V30.704C176.48 30.608 177.6 30.512 178.736 30.4ZM184.032 21.488L185.664 22.896C185.552 23.04 185.328 23.152 184.976 23.2C184.88 29.568 184.688 31.68 183.872 32.528C183.376 33.072 182.688 33.28 181.872 33.28C181.888 32.704 181.84 32.304 181.648 32.048C181.44 31.776 181.024 31.584 180.48 31.44V31.216C180.96 31.264 181.68 31.312 182 31.312C182.24 31.312 182.384 31.248 182.528 31.12C183.024 30.64 183.168 28.208 183.264 22.912H181.808C181.712 27.696 181.152 31.136 177.008 33.456L176.832 33.216C179.616 30.656 180.016 27.376 180.064 22.912H178.656L178.512 22.448H180.064C180.064 21.248 180.048 19.984 180.048 18.608L182.432 18.832C182.384 19.072 182.224 19.232 181.84 19.28C181.824 20.4 181.824 21.456 181.808 22.448H183.088L184.032 21.488ZM188.736 18.592L188.864 18.512C193.168 18.736 191.6 22.08 189.872 20.896C189.76 20.048 189.248 19.152 188.736 18.592ZM191.488 25.6L192.384 24.48C192.384 24.48 193.392 25.248 193.968 25.808C193.92 25.984 193.76 26.064 193.552 26.064H187.424L187.296 25.6H191.488ZM191.488 23.536L192.384 22.4C192.384 22.4 193.392 23.168 193.968 23.728C193.92 23.904 193.76 23.984 193.552 23.984H187.424L187.296 23.536H191.488ZM189.28 31.264H191.744V28.224H189.28V31.264ZM191.584 27.776L192.4 26.896L194.096 28.192C194 28.304 193.776 28.448 193.456 28.512V32.144C193.44 32.272 192.608 32.624 192.032 32.624H191.744V31.712H189.28V32.656C189.28 32.816 188.544 33.2 187.84 33.2H187.6V27.072L189.344 27.776H191.584ZM192.256 21.456L193.168 20.288C193.168 20.288 194.192 21.088 194.816 21.664C194.784 21.84 194.608 21.92 194.384 21.92H186.592L186.464 21.456H192.256ZM198.72 20.048L199.776 18.608C199.776 18.608 200.96 19.584 201.664 20.256C201.616 20.432 201.44 20.512 201.216 20.512H199.04V31.024C199.04 32.288 198.72 33.168 196.528 33.344C196.48 32.752 196.368 32.288 196.096 32.032C195.808 31.744 195.424 31.52 194.496 31.392V31.168C194.496 31.168 196.416 31.28 196.816 31.28C197.104 31.28 197.184 31.168 197.184 30.944V20.512H194.128L194 20.048H198.72ZM210.768 20.064H209.12V21.68H210.768V20.064ZM213.984 22.144H212.416V24.48H213.984V22.144ZM209.12 22.144V24.48H210.768V22.144H209.12ZM206.016 22.144V24.48H207.488V22.144H206.016ZM207.488 20.064H202.992L202.864 19.616H214.288L215.312 18.4C215.312 18.4 216.464 19.232 217.168 19.808C217.12 19.984 216.96 20.064 216.72 20.064H212.416V21.68H213.824L214.688 20.752L216.512 22.112C216.416 22.24 216.192 22.384 215.872 22.448V25.12C215.856 25.248 214.928 25.616 214.304 25.616H214.112C214.48 25.904 214.976 26.304 215.36 26.624C215.328 26.8 215.152 26.88 214.912 26.88H204.72L204.592 26.416H212.704L213.632 25.248L213.984 25.52V24.928H206.016V25.536C206.016 25.712 205.2 26.112 204.432 26.112H204.176V20.896L206.176 21.68H207.488V20.064ZM202.672 32.928L202.544 32.752C203.968 31.84 205.296 30.32 205.904 29.136L208.032 30.368C207.952 30.512 207.792 30.608 207.44 30.544C206.384 31.552 204.576 32.48 202.672 32.928ZM211.968 29.616L212.096 29.488C217.712 29.84 217.024 33.584 215.04 32.768C214.416 31.648 213.024 30.384 211.968 29.616ZM214.32 28.432L215.376 27.152C215.376 27.152 216.544 28.016 217.248 28.624C217.2 28.8 217.024 28.88 216.816 28.88H210.944V33.024C210.944 33.104 210.368 33.392 209.392 33.392H209.056V28.88H202.96L202.816 28.432H214.32ZM219.744 28.832H219.984C220.608 30.48 220.512 31.728 220.048 32.368C219.712 32.8 218.88 32.816 218.592 32.272C218.352 31.792 218.592 31.312 219.008 31.008C219.376 30.608 219.856 29.632 219.744 28.832ZM220.864 28.672L221.072 28.624C223.568 30.672 221.92 32.88 220.944 31.648C221.12 30.672 221.04 29.504 220.864 28.672ZM222.192 28.464L222.368 28.384C225.536 29.744 224.144 32.208 222.976 31.104C222.992 30.224 222.608 29.152 222.192 28.464ZM230.624 29.312L230.704 29.328C231.056 29.456 231.184 29.584 231.184 29.824C231.184 30.336 230.752 30.528 229.136 30.528H228.224C227.168 30.528 227.024 30.224 227.024 29.44V26.624H226.4L226.272 26.16H229.648L230.256 25.328C230.256 25.328 230.96 25.92 231.392 26.368C231.36 26.544 231.2 26.624 230.992 26.624H228.288V26.832V29.168C228.288 29.344 228.336 29.392 228.608 29.392H229.28H229.888C229.968 29.392 230.112 29.376 230.16 29.376C230.256 29.36 230.384 29.344 230.48 29.312H230.624ZM227.6 24.08L227.76 24.016C230.752 24.8 229.104 26.848 228.016 25.776C228.048 25.184 227.84 24.512 227.6 24.08ZM221.056 18.464L223.184 19.488C223.12 19.648 222.944 19.744 222.64 19.728C221.968 20.752 220.8 22.112 219.776 23.008C220.384 23.024 221.136 23.024 221.92 23.008C222.24 22.432 222.496 21.904 222.672 21.472L224.544 22.752C224.464 22.88 224.24 22.992 223.936 22.928C223.088 24.08 221.456 25.696 219.984 26.768C220.72 26.736 221.68 26.672 222.704 26.592C222.576 26.064 222.4 25.568 222.224 25.168L222.416 25.088C225.456 26.72 223.952 29.04 222.848 27.888C222.864 27.648 222.832 27.392 222.8 27.12C221.968 27.456 220.88 27.904 219.68 28.336C219.552 28.496 219.408 28.608 219.248 28.656L218.624 26.768C218.624 26.768 219.008 26.704 219.168 26.576C219.872 26.032 220.736 24.912 221.44 23.808C220.96 24 220.416 24.224 219.824 24.448C219.712 24.64 219.568 24.768 219.408 24.816L218.64 22.96C218.64 22.96 218.96 22.864 219.104 22.768C219.84 21.968 220.784 19.68 221.056 18.464ZM232.144 18.656L233.776 19.92C233.664 20.048 233.44 20.176 233.12 20.24V31.248C233.12 32.368 232.88 33.008 231.04 33.168C231.008 32.688 230.928 32.304 230.688 32.064C230.448 31.84 230.128 31.664 229.392 31.536V31.312C229.392 31.312 230.912 31.408 231.232 31.408C231.504 31.408 231.584 31.312 231.584 31.072V23.904C231.52 23.936 231.44 23.952 231.344 23.952H226.272L226.16 23.504H228.96C229.216 22.592 229.472 21.312 229.616 20.416L231.472 20.928C231.392 21.12 231.216 21.264 230.864 21.232C230.48 21.888 229.904 22.768 229.312 23.504H229.936L230.576 22.624C230.576 22.624 231.136 23.104 231.584 23.52V19.984H226.016V32.832C226.016 32.944 225.552 33.312 224.8 33.312H224.544V18.864L226.224 19.52H231.424L232.144 18.656ZM226.432 20.608L226.624 20.528C229.68 21.824 228.288 24.064 227.2 23.04C227.184 22.224 226.8 21.248 226.432 20.608Z" fill="black"/>
<rect x="1" y="1" width="51" height="51" fill="#FBFF22" stroke="#030303" stroke-width="2"/>
<g clip-path="url(#clip0_200_3005)">
<path d="M40.1917 26.5C40.1917 26.5 39.0257 26.7208 36.8394 26.9417C34.6532 27.1625 31.4511 27.3833 27.3834 27.3833C27.3834 35.5188 26.5 40.1917 26.5 40.1917C26.5 40.1917 26.2792 39.0257 26.0584 36.8394C25.8375 34.6532 25.6167 31.4511 25.6167 27.3833C17.4812 27.3833 12.8083 26.5 12.8083 26.5C12.8083 26.5 13.9743 26.2792 16.1606 26.0583C18.3468 25.8375 21.5489 25.6167 25.6167 25.6167C25.6167 17.4812 26.5 12.8083 26.5 12.8083C26.5 12.8083 27.3834 17.4812 27.3834 25.6167C35.5189 25.6167 40.1917 26.5 40.1917 26.5Z" fill="#030303"/>
<path d="M27.3833 24.7333C30.0333 21.2 32.6833 20.3167 32.6833 20.3167C31.5448 22.3366 30.0482 24.1325 28.2666 25.6167" fill="#030303"/>
<path d="M24.7333 25.6167C21.2 22.9667 20.3167 20.3167 20.3167 20.3167C22.3366 21.4552 24.1325 22.9518 25.6167 24.7333" fill="#030303"/>
<path d="M25.6167 28.2666C22.9667 31.8 20.3167 32.6833 20.3167 32.6833C21.4552 30.6633 22.9518 28.8674 24.7333 27.3833" fill="#030303"/>
<path d="M28.2666 27.3833C31.8 30.0333 32.6833 32.6833 32.6833 32.6833C30.6633 31.5448 28.8674 30.0482 27.3833 28.2666" fill="#030303"/>
<path d="M26.5001 28.7083C27.7197 28.7083 28.7084 27.7196 28.7084 26.5C28.7084 25.2804 27.7197 24.2917 26.5001 24.2917C25.2805 24.2917 24.2917 25.2804 24.2917 26.5C24.2917 27.7196 25.2805 28.7083 26.5001 28.7083Z" fill="#030303"/>
</g>
<defs>
<clipPath id="clip0_200_3005">
<rect width="28.2667" height="28.2667" fill="white" transform="translate(12.3667 12.3666)"/>
</clipPath>
</defs>
</svg>
